<svg width="294" height="71" viewBox="0 0 294 71" fill="none" xmlns="http://www.w3.org/2000/svg">
<rect x="133.5" y="1.5" width="159" height="62" stroke="black" stroke-width="3"/>
<rect width="162" height="65" fill="white"/>
<path d="M5.63636 55V8.45454H21.9091C25.1515 8.45454 27.8258 9.01515 29.9318 10.1364C32.0379 11.2424 33.6061 12.7348 34.6364 14.6136C35.6667 16.4773 36.1818 18.5455 36.1818 20.8182C36.1818 22.8182 35.8258 24.4697 35.1136 25.7727C34.4167 27.0758 33.4924 28.1061 32.3409 28.8636C31.2045 29.6212 29.9697 30.1818 28.6364 30.5455V31C30.0606 31.0909 31.4924 31.5909 32.9318 32.5C34.3712 33.4091 35.5758 34.7121 36.5455 36.4091C37.5152 38.1061 38 40.1818 38 42.6364C38 44.9697 37.4697 47.0682 36.4091 48.9318C35.3485 50.7955 33.6742 52.2727 31.3864 53.3636C29.0985 54.4545 26.1212 55 22.4545 55H5.63636ZM11.2727 50H22.4545C26.1364 50 28.75 49.2879 30.2955 47.8636C31.8561 46.4242 32.6364 44.6818 32.6364 42.6364C32.6364 41.0606 32.2348 39.6061 31.4318 38.2727C30.6288 36.9242 29.4848 35.8485 28 35.0455C26.5152 34.2273 24.7576 33.8182 22.7273 33.8182H11.2727V50ZM11.2727 28.9091H21.7273C23.4242 28.9091 24.9545 28.5758 26.3182 27.9091C27.697 27.2424 28.7879 26.303 29.5909 25.0909C30.4091 23.8788 30.8182 22.4545 30.8182 20.8182C30.8182 18.7727 30.1061 17.0379 28.6818 15.6136C27.2576 14.1742 25 13.4545 21.9091 13.4545H11.2727V28.9091ZM51.8977 8.45454V55H46.5341V8.45454H51.8977ZM71.9943 55.8182C69.7822 55.8182 67.7746 55.4015 65.9716 54.5682C64.1686 53.7197 62.7367 52.5 61.6761 50.9091C60.6155 49.303 60.0852 47.3636 60.0852 45.0909C60.0852 43.0909 60.4792 41.4697 61.267 40.2273C62.0549 38.9697 63.108 37.9848 64.4261 37.2727C65.7443 36.5606 67.1989 36.0303 68.7898 35.6818C70.3958 35.3182 72.0095 35.0303 73.6307 34.8182C75.7519 34.5455 77.4716 34.3409 78.7898 34.2045C80.1231 34.053 81.0928 33.803 81.6989 33.4545C82.3201 33.1061 82.6307 32.5 82.6307 31.6364V31.4545C82.6307 29.2121 82.017 27.4697 80.7898 26.2273C79.5777 24.9848 77.7367 24.3636 75.267 24.3636C72.7064 24.3636 70.6989 24.9242 69.2443 26.0455C67.7898 27.1667 66.767 28.3636 66.1761 29.6364L61.0852 27.8182C61.9943 25.697 63.2064 24.0455 64.7216 22.8636C66.2519 21.6667 67.9186 20.8333 69.7216 20.3636C71.5398 19.8788 73.3277 19.6364 75.0852 19.6364C76.2064 19.6364 77.4943 19.7727 78.9489 20.0455C80.4186 20.303 81.8352 20.8409 83.1989 21.6591C84.5777 22.4773 85.7216 23.7121 86.6307 25.3636C87.5398 27.0152 87.9943 29.2273 87.9943 32V55H82.6307V50.2727H82.358C81.9943 51.0303 81.3883 51.8409 80.5398 52.7045C79.6913 53.5682 78.5625 54.303 77.1534 54.9091C75.7443 55.5152 74.0246 55.8182 71.9943 55.8182ZM72.8125 51C74.9337 51 76.7216 50.5833 78.1761 49.75C79.6458 48.9167 80.7519 47.8409 81.4943 46.5227C82.2519 45.2045 82.6307 43.8182 82.6307 42.3636V37.4545C82.4034 37.7273 81.9034 37.9773 81.1307 38.2045C80.3731 38.4167 79.4943 38.6061 78.4943 38.7727C77.5095 38.9242 76.5473 39.0606 75.608 39.1818C74.6837 39.2879 73.9337 39.3788 73.358 39.4545C71.964 39.6364 70.661 39.9318 69.4489 40.3409C68.2519 40.7348 67.2822 41.3333 66.5398 42.1364C65.8125 42.9242 65.4489 44 65.4489 45.3636C65.4489 47.2273 66.1383 48.6364 67.517 49.5909C68.911 50.5303 70.6761 51 72.8125 51ZM111.966 55.7273C108.693 55.7273 105.875 54.9545 103.511 53.4091C101.148 51.8636 99.3295 49.7348 98.0568 47.0227C96.7841 44.3106 96.1477 41.2121 96.1477 37.7273C96.1477 34.1818 96.7992 31.053 98.1023 28.3409C99.4205 25.6136 101.254 23.4848 103.602 21.9545C105.966 20.4091 108.723 19.6364 111.875 19.6364C114.33 19.6364 116.542 20.0909 118.511 21C120.481 21.9091 122.095 23.1818 123.352 24.8182C124.61 26.4545 125.39 28.3636 125.693 30.5455H120.33C119.92 28.9545 119.011 27.5455 117.602 26.3182C116.208 25.0758 114.33 24.4545 111.966 24.4545C109.875 24.4545 108.042 25 106.466 26.0909C104.905 27.1667 103.686 28.6894 102.807 30.6591C101.943 32.6136 101.511 34.9091 101.511 37.5455C101.511 40.2424 101.936 42.5909 102.784 44.5909C103.648 46.5909 104.86 48.1439 106.42 49.25C107.996 50.3561 109.845 50.9091 111.966 50.9091C113.36 50.9091 114.625 50.6667 115.761 50.1818C116.898 49.697 117.86 49 118.648 48.0909C119.436 47.1818 119.996 46.0909 120.33 44.8182H125.693C125.39 46.8788 124.64 48.7348 123.443 50.3864C122.261 52.0227 120.693 53.3258 118.739 54.2955C116.799 55.25 114.542 55.7273 111.966 55.7273ZM138.534 42.2727L138.443 35.6364H139.534L154.807 20.0909H161.443L145.17 36.5455H144.716L138.534 42.2727ZM133.534 55V8.45454H138.898V55H133.534ZM155.716 55L142.08 37.7273L145.898 34L162.534 55H155.716Z" fill="black"/>
<path d="M169.074 55V8.45454H185.347C188.589 8.45454 191.263 9.01515 193.369 10.1364C195.475 11.2424 197.044 12.7348 198.074 14.6136C199.104 16.4773 199.619 18.5455 199.619 20.8182C199.619 22.8182 199.263 24.4697 198.551 25.7727C197.854 27.0758 196.93 28.1061 195.778 28.8636C194.642 29.6212 193.407 30.1818 192.074 30.5455V31C193.498 31.0909 194.93 31.5909 196.369 32.5C197.809 33.4091 199.013 34.7121 199.983 36.4091C200.953 38.1061 201.438 40.1818 201.438 42.6364C201.438 44.9697 200.907 47.0682 199.847 48.9318C198.786 50.7955 197.112 52.2727 194.824 53.3636C192.536 54.4545 189.559 55 185.892 55H169.074ZM174.71 50H185.892C189.574 50 192.188 49.2879 193.733 47.8636C195.294 46.4242 196.074 44.6818 196.074 42.6364C196.074 41.0606 195.672 39.6061 194.869 38.2727C194.066 36.9242 192.922 35.8485 191.438 35.0455C189.953 34.2273 188.195 33.8182 186.165 33.8182H174.71V50ZM174.71 28.9091H185.165C186.862 28.9091 188.392 28.5758 189.756 27.9091C191.134 27.2424 192.225 26.303 193.028 25.0909C193.847 23.8788 194.256 22.4545 194.256 20.8182C194.256 18.7727 193.544 17.0379 192.119 15.6136C190.695 14.1742 188.438 13.4545 185.347 13.4545H174.71V28.9091ZM224.153 55.7273C221.002 55.7273 218.237 54.9773 215.858 53.4773C213.494 51.9773 211.646 49.8788 210.312 47.1818C208.994 44.4848 208.335 41.3333 208.335 37.7273C208.335 34.0909 208.994 30.9167 210.312 28.2045C211.646 25.4924 213.494 23.3864 215.858 21.8864C218.237 20.3864 221.002 19.6364 224.153 19.6364C227.305 19.6364 230.063 20.3864 232.426 21.8864C234.805 23.3864 236.653 25.4924 237.972 28.2045C239.305 30.9167 239.972 34.0909 239.972 37.7273C239.972 41.3333 239.305 44.4848 237.972 47.1818C236.653 49.8788 234.805 51.9773 232.426 53.4773C230.063 54.9773 227.305 55.7273 224.153 55.7273ZM224.153 50.9091C226.547 50.9091 228.517 50.2955 230.062 49.0682C231.608 47.8409 232.752 46.2273 233.494 44.2273C234.237 42.2273 234.608 40.0606 234.608 37.7273C234.608 35.3939 234.237 33.2197 233.494 31.2045C232.752 29.1894 231.608 27.5606 230.062 26.3182C228.517 25.0758 226.547 24.4545 224.153 24.4545C221.759 24.4545 219.79 25.0758 218.244 26.3182C216.699 27.5606 215.555 29.1894 214.812 31.2045C214.07 33.2197 213.699 35.3939 213.699 37.7273C213.699 40.0606 214.07 42.2273 214.812 44.2273C215.555 46.2273 216.699 47.8409 218.244 49.0682C219.79 50.2955 221.759 50.9091 224.153 50.9091ZM250.722 20.0909L259.085 34.3636L267.449 20.0909H273.631L262.358 37.5455L273.631 55H267.449L259.085 41.4545L250.722 55H244.54L255.631 37.5455L244.54 20.0909H250.722Z" fill="white"/>
</svg>
