<svg width="71" height="25" viewBox="0 0 71 25" fill="none" xmlns="http://www.w3.org/2000/svg">
<path d="M14.489 13.2746L4.61427 23.4714C3.93175 24.1762 2.8281 24.1762 2.15284 23.4714L0.511889 21.7769C-0.17063 21.0722 -0.17063 19.9325 0.511889 19.2352L7.51134 12.0075L0.511889 4.77976C-0.17063 4.07498 -0.17063 2.93533 0.511889 2.23805L2.14558 0.528585C2.8281 -0.176195 3.93175 -0.176195 4.60701 0.528585L14.4818 10.7254C15.1715 11.4302 15.1715 12.5698 14.489 13.2746V13.2746Z" fill="white"/>
<path d="M70.489 13.2746L60.6143 23.4714C59.9317 24.1762 58.8281 24.1762 58.1528 23.4714L56.5119 21.7769C55.8294 21.0722 55.8294 19.9325 56.5119 19.2352L63.5113 12.0075L56.5119 4.77976C55.8294 4.07498 55.8294 2.93533 56.5119 2.23805L58.1456 0.528585C58.8281 -0.176195 59.9317 -0.176195 60.607 0.528585L70.4818 10.7254C71.1715 11.4302 71.1715 12.5698 70.489 13.2746V13.2746Z" fill="white"/>
<path d="M34.6748 0.149542L24.5186 3.95814C23.6055 4.29993 23 5.17884 23 6.1554V17.1466C23 18.0353 23.5029 18.8458 24.2939 19.2413L34.4502 24.3195C35.1094 24.6515 35.8857 24.6515 36.5449 24.3195L46.7012 19.2413C47.4971 18.8458 47.9951 18.0304 47.9951 17.1466V6.1554C47.9951 5.17884 47.3896 4.30481 46.4766 3.96302L36.3203 0.154424C35.793 -0.0506537 35.207 -0.0506537 34.6748 0.149542ZM35.5 3.18177L44.875 6.69739V6.7511L35.5 10.5597L26.125 6.7511V6.69739L35.5 3.18177ZM37.0625 20.5646V13.2941L44.875 10.1202V16.6583L37.0625 20.5646Z" fill="white"/>
</svg>
