<svg width="128" height="119" viewBox="0 0 128 119" fill="none" xmlns="http://www.w3.org/2000/svg">
<path fill-rule="evenodd" clip-rule="evenodd" d="M85.196 106.109C75.7756 122.425 52.2244 122.425 42.804 106.109L3.31554 37.7126C-6.10491 21.3959 5.67066 1.00001 24.5115 1.00001L103.488 1C122.329 1 134.105 21.3959 124.684 37.7126L85.196 106.109ZM50.3533 101.75C56.4185 112.255 71.5815 112.255 77.6467 101.75L117.135 33.354C123.2 22.8487 115.619 9.71713 103.488 9.71713L24.5115 9.71714C12.3811 9.71714 4.79958 22.8487 10.8648 33.354L50.3533 101.75Z" fill="white"/>
<circle cx="63.9998" cy="48.2738" r="16.3486" transform="rotate(180 63.9998 48.2738)" stroke="white" stroke-width="6.5"/>
<path d="M64.4087 31.925C31.9064 31.925 28.0073 71.7302 31.9158 78.5186" stroke="white" stroke-width="6.5"/>
<path d="M49.6952 56.2437C65.5938 83.7809 101.585 68.8368 105.485 62.1701" stroke="white" stroke-width="6.5"/>
<path d="M78.3051 56.2436C94.7842 27.7008 62.8092 5.28593 55.0083 5.35851" stroke="white" stroke-width="6.5"/>
</svg>
